<svg xmlns="http://www.w3.org/2000/svg" version="1.1" xlink="http://www.w3.org/1999/xlink" xmlns:svgjs="http://svgjs.com/svgjs" width="300" height="103.87018889362302"><defs id="SvgjsDefs283907"/><g id="SvgjsG283908" transform="scale(0.6493506493506493)" opacity="1"><g id="SvgjsG283909" class="fBASvKMD6" transform="translate(0, 0) scale(1)" light-content="false" fill="#9b9b9b"><path d="M0 0 h 461.99999999999994 v 4 h -461.99999999999994 Z M0 0 h 4 v 118.12462718363867 h -4 Z M461.99999999999994 118.12462718363867 h -461.99999999999994 v -4 h 461.99999999999994 Z M461.99999999999994 118.12462718363867 h -4 v -118.12462718363867 h 4 Z" fill-rule="nonzero"/></g><g id="SvgjsG283910" class="text" transform="translate(230.9958798466127, 93.5258798466127) scale(1)" light-content="false" fill="#4a2f7c"><path d="M-192.59 -55.12L-178.8 -55.12C-176.91 -55.12 -175.13 -54.76 -173.47 -54.04C-171.8 -53.32 -170.34 -52.34 -169.09 -51.09C-167.84 -49.84 -166.86 -48.37 -166.14 -46.69C-165.42 -45.01 -165.06 -43.22 -165.06 -41.33C-165.06 -39.44 -165.42 -37.65 -166.14 -35.97C-166.86 -34.29 -167.84 -32.82 -169.09 -31.57C-170.34 -30.32 -171.8 -29.34 -173.47 -28.62C-175.13 -27.9 -176.91 -27.54 -178.8 -27.54L-192.59 -27.54ZM-192.59 0L-192.59 -13.79L-177.17 -13.89L-171.16 0L-156.5 0L-164.14 -18.02C-162.16 -19.27 -160.36 -20.75 -158.76 -22.44C-157.16 -24.14 -155.81 -26 -154.7 -28.02C-153.59 -30.04 -152.75 -32.17 -152.15 -34.41C-151.56 -36.65 -151.26 -38.96 -151.26 -41.33C-151.26 -43.86 -151.59 -46.3 -152.25 -48.64C-152.91 -50.97 -153.83 -53.17 -155.04 -55.22C-156.24 -57.27 -157.68 -59.14 -159.36 -60.82C-161.04 -62.5 -162.9 -63.94 -164.94 -65.14C-166.97 -66.34 -169.16 -67.27 -171.5 -67.93C-173.84 -68.59 -176.27 -68.92 -178.8 -68.92L-206.39 -68.92L-206.39 0Z M-85.14 0L-85.14 -13.79L-118.59 -13.79L-118.59 -27.54L-95.96 -27.54L-95.96 -41.33L-118.59 -41.33L-118.59 -55.12L-85.14 -55.12L-85.14 -68.92L-132.39 -68.92L-132.39 0Z M-36.71 0L-36.71 -55.12L-16.05 -55.12L-16.05 -68.92L-71.17 -68.92L-71.17 -55.12L-50.46 -55.12L-50.46 0Z M55.45 -27.54L55.45 -68.92L41.66 -68.92L41.66 -27.54C41.66 -25.65 41.3 -23.87 40.58 -22.2C39.86 -20.54 38.87 -19.08 37.62 -17.83C36.38 -16.58 34.91 -15.59 33.23 -14.87C31.55 -14.15 29.76 -13.79 27.87 -13.79C25.98 -13.79 24.19 -14.15 22.51 -14.87C20.83 -15.59 19.36 -16.58 18.11 -17.83C16.86 -19.08 15.88 -20.54 15.16 -22.2C14.44 -23.87 14.08 -25.65 14.08 -27.54L14.08 -68.92L0.33 -68.92L0.33 -27.54C0.33 -23.72 1.05 -20.14 2.49 -16.8C3.94 -13.45 5.9 -10.53 8.38 -8.05C10.86 -5.57 13.78 -3.6 17.13 -2.16C20.48 -0.72 24.06 0 27.87 0C31.68 0 35.26 -0.72 38.61 -2.16C41.96 -3.6 44.88 -5.57 47.38 -8.05C49.88 -10.53 51.85 -13.45 53.29 -16.8C54.73 -20.14 55.45 -23.72 55.45 -27.54Z M91.06 -55.12L104.85 -55.12C106.74 -55.12 108.52 -54.76 110.18 -54.04C111.85 -53.32 113.31 -52.34 114.56 -51.09C115.81 -49.84 116.79 -48.37 117.51 -46.69C118.23 -45.01 118.59 -43.22 118.59 -41.33C118.59 -39.44 118.23 -37.65 117.51 -35.97C116.79 -34.29 115.81 -32.82 114.56 -31.57C113.31 -30.32 111.85 -29.34 110.18 -28.62C108.52 -27.9 106.74 -27.54 104.85 -27.54L91.06 -27.54ZM91.06 0L91.06 -13.79L106.48 -13.89L112.49 0L127.15 0L119.51 -18.02C121.49 -19.27 123.29 -20.75 124.89 -22.44C126.49 -24.14 127.84 -26 128.95 -28.02C130.06 -30.04 130.9 -32.17 131.5 -34.41C132.09 -36.65 132.39 -38.96 132.39 -41.33C132.39 -43.86 132.06 -46.3 131.4 -48.64C130.74 -50.97 129.82 -53.17 128.61 -55.22C127.41 -57.27 125.97 -59.14 124.29 -60.82C122.61 -62.5 120.75 -63.94 118.71 -65.14C116.68 -66.34 114.49 -67.27 112.15 -67.93C109.82 -68.59 107.38 -68.92 104.85 -68.92L77.26 -68.92L77.26 0Z M206.39 0L206.39 -68.92L192.59 -68.92L192.59 -23.5L166.02 -68.92L151.26 -68.92L151.26 0L165.06 0L165.06 -45.37L191.63 0Z"/></g><g id="SvgjsG283911" class="text" transform="translate(231.15587984661272, 159.45893907115462) scale(1)" light-content="false" fill="#9013fe"><path d="M-206.55 -16.08C-206.55 -15.13 -206.37 -14.24 -206 -13.4C-205.64 -12.56 -205.15 -11.83 -204.52 -11.21C-203.9 -10.58 -203.17 -10.09 -202.33 -9.72C-201.5 -9.36 -200.61 -9.18 -199.66 -9.18L-195.06 -9.18C-194.74 -9.18 -194.44 -9.12 -194.16 -9C-193.89 -8.89 -193.64 -8.72 -193.43 -8.51C-193.23 -8.31 -193.06 -8.06 -192.95 -7.79C-192.83 -7.51 -192.77 -7.21 -192.77 -6.89C-192.77 -6.57 -192.83 -6.27 -192.95 -5.99C-193.06 -5.71 -193.23 -5.47 -193.43 -5.26C-193.64 -5.05 -193.89 -4.89 -194.16 -4.77C-194.44 -4.66 -194.74 -4.6 -195.06 -4.6L-205.27 -4.6L-205.27 0L-195.06 0C-194.11 0 -193.22 -0.18 -192.38 -0.54C-191.54 -0.91 -190.81 -1.4 -190.18 -2.03C-189.56 -2.65 -189.07 -3.38 -188.71 -4.21C-188.35 -5.05 -188.17 -5.94 -188.17 -6.89C-188.17 -7.84 -188.35 -8.73 -188.71 -9.57C-189.07 -10.41 -189.56 -11.14 -190.18 -11.77C-190.81 -12.39 -191.54 -12.88 -192.38 -13.24C-193.22 -13.6 -194.11 -13.78 -195.06 -13.78L-199.66 -13.78C-199.98 -13.78 -200.28 -13.84 -200.56 -13.95C-200.83 -14.07 -201.08 -14.23 -201.28 -14.44C-201.49 -14.65 -201.66 -14.9 -201.77 -15.18C-201.89 -15.46 -201.95 -15.76 -201.95 -16.08C-201.95 -16.4 -201.89 -16.7 -201.77 -16.98C-201.66 -17.26 -201.49 -17.5 -201.28 -17.71C-201.08 -17.92 -200.83 -18.08 -200.56 -18.2C-200.28 -18.32 -199.98 -18.37 -199.66 -18.37L-189.12 -18.37L-189.12 -22.97L-199.66 -22.97C-200.61 -22.97 -201.5 -22.79 -202.33 -22.43C-203.17 -22.06 -203.9 -21.57 -204.52 -20.95C-205.15 -20.32 -205.64 -19.59 -206 -18.76C-206.37 -17.93 -206.55 -17.03 -206.55 -16.08Z M-110.86 0L-110.86 -4.6L-122.01 -4.6L-122.01 -9.18L-114.47 -9.18L-114.47 -13.78L-122.01 -13.78L-122.01 -18.37L-110.86 -18.37L-110.86 -22.97L-126.61 -22.97L-126.61 0Z M-31.31 -2.35L-33.74 -6.36C-34.42 -5.63 -35.21 -5.08 -36.13 -4.69C-37.05 -4.3 -38.01 -4.1 -39.02 -4.1C-40.03 -4.1 -40.98 -4.29 -41.87 -4.68C-42.75 -5.06 -43.53 -5.59 -44.19 -6.25C-44.85 -6.91 -45.38 -7.68 -45.76 -8.56C-46.14 -9.44 -46.34 -10.39 -46.34 -11.39C-46.34 -12.39 -46.14 -13.34 -45.76 -14.23C-45.38 -15.13 -44.85 -15.9 -44.19 -16.56C-43.53 -17.21 -42.75 -17.73 -41.87 -18.12C-40.98 -18.5 -40.03 -18.69 -39.02 -18.69C-38.01 -18.69 -37.05 -18.5 -36.13 -18.11C-35.21 -17.72 -34.42 -17.16 -33.74 -16.44L-31.31 -20.44C-32.38 -21.37 -33.57 -22.08 -34.9 -22.56C-36.22 -23.05 -37.59 -23.29 -39.02 -23.29C-40.1 -23.29 -41.15 -23.15 -42.16 -22.87C-43.17 -22.58 -44.12 -22.18 -45 -21.67C-45.88 -21.15 -46.68 -20.53 -47.41 -19.8C-48.14 -19.07 -48.76 -18.27 -49.28 -17.39C-49.79 -16.51 -50.19 -15.56 -50.48 -14.55C-50.76 -13.53 -50.9 -12.48 -50.9 -11.39C-50.9 -10.3 -50.76 -9.25 -50.48 -8.24C-50.19 -7.23 -49.79 -6.29 -49.28 -5.41C-48.76 -4.53 -48.14 -3.72 -47.41 -3C-46.68 -2.27 -45.88 -1.65 -45 -1.13C-44.12 -0.61 -43.17 -0.21 -42.16 0.07C-41.15 0.36 -40.1 0.5 -39.02 0.5C-37.59 0.5 -36.22 0.25 -34.9 -0.24C-33.57 -0.73 -32.38 -1.44 -31.31 -2.35Z M48.02 -9.18L48.02 -22.97L43.42 -22.97L43.42 -9.18C43.42 -8.55 43.3 -7.96 43.06 -7.4C42.82 -6.85 42.49 -6.36 42.08 -5.94C41.66 -5.53 41.17 -5.2 40.61 -4.96C40.05 -4.72 39.45 -4.6 38.82 -4.6C38.19 -4.6 37.6 -4.72 37.04 -4.96C36.48 -5.2 35.99 -5.53 35.57 -5.94C35.15 -6.36 34.83 -6.85 34.59 -7.4C34.35 -7.96 34.23 -8.55 34.23 -9.18L34.23 -22.97L29.64 -22.97L29.64 -9.18C29.64 -7.91 29.88 -6.71 30.36 -5.6C30.85 -4.48 31.5 -3.51 32.33 -2.68C33.15 -1.86 34.13 -1.2 35.24 -0.72C36.36 -0.24 37.55 0 38.82 0C40.09 0 41.29 -0.24 42.4 -0.72C43.52 -1.2 44.49 -1.86 45.33 -2.68C46.16 -3.51 46.82 -4.48 47.3 -5.6C47.78 -6.71 48.02 -7.91 48.02 -9.18Z M115.16 -18.37L119.75 -18.37C120.38 -18.37 120.98 -18.25 121.53 -18.01C122.09 -17.77 122.57 -17.45 122.99 -17.03C123.41 -16.61 123.73 -16.12 123.97 -15.56C124.21 -15 124.33 -14.41 124.33 -13.78C124.33 -13.15 124.21 -12.55 123.97 -11.99C123.73 -11.43 123.41 -10.94 122.99 -10.52C122.57 -10.11 122.09 -9.78 121.53 -9.54C120.98 -9.3 120.38 -9.18 119.75 -9.18L115.16 -9.18ZM115.16 0L115.16 -4.6L120.3 -4.63L122.3 0L127.19 0L124.64 -6.01C125.3 -6.42 125.9 -6.92 126.43 -7.48C126.97 -8.05 127.42 -8.67 127.79 -9.34C128.16 -10.01 128.44 -10.72 128.64 -11.47C128.83 -12.22 128.93 -12.99 128.93 -13.78C128.93 -14.62 128.82 -15.43 128.6 -16.21C128.39 -16.99 128.08 -17.72 127.67 -18.41C127.27 -19.09 126.79 -19.71 126.23 -20.27C125.67 -20.83 125.05 -21.31 124.37 -21.71C123.7 -22.11 122.97 -22.42 122.19 -22.64C121.41 -22.86 120.6 -22.97 119.75 -22.97L110.56 -22.97L110.56 0Z M206.24 0L206.24 -4.6L195.09 -4.6L195.09 -9.18L202.64 -9.18L202.64 -13.78L195.09 -13.78L195.09 -18.37L206.24 -18.37L206.24 -22.97L190.5 -22.97L190.5 0Z"/></g></g></svg>